<mxfile host="Electron" agent="Mozilla/5.0 (Windows NT 10.0; Win64; x64) AppleWebKit/537.36 (KHTML, like Gecko) draw.io/24.7.5 Chrome/126.0.6478.183 Electron/31.3.0 Safari/537.36" version="24.7.5">
  <diagram name="ページ1" id="IcnlXymfl3ra3HIMCKri">
    <mxGraphModel dx="934" dy="561" grid="1" gridSize="10" guides="1" tooltips="1" connect="1" arrows="1" fold="1" page="1" pageScale="1" pageWidth="1200" pageHeight="1920" math="0" shadow="0">
      <root>
        <mxCell id="0" />
        <mxCell id="1" parent="0" />
        <mxCell id="GcIDJ9KaJ4bPvR8jILLQ-74" value="" style="rounded=0;whiteSpace=wrap;html=1;movable=0;resizable=0;rotatable=0;deletable=0;editable=0;locked=1;connectable=0;" parent="1" vertex="1">
          <mxGeometry x="40" y="2700" width="1800" height="910" as="geometry" />
        </mxCell>
        <mxCell id="GcIDJ9KaJ4bPvR8jILLQ-184" value="" style="rounded=0;whiteSpace=wrap;html=1;movable=0;resizable=0;rotatable=0;deletable=0;editable=0;locked=1;connectable=0;" parent="1" vertex="1">
          <mxGeometry x="1350" y="3060" width="460" height="530" as="geometry" />
        </mxCell>
        <mxCell id="GcIDJ9KaJ4bPvR8jILLQ-157" value="" style="endArrow=none;dashed=1;html=1;dashPattern=1 3;strokeWidth=2;rounded=0;" parent="1" source="GcIDJ9KaJ4bPvR8jILLQ-261" edge="1">
          <mxGeometry width="50" height="50" relative="1" as="geometry">
            <mxPoint x="905" y="2100" as="sourcePoint" />
            <mxPoint x="895" y="700" as="targetPoint" />
          </mxGeometry>
        </mxCell>
        <mxCell id="GcIDJ9KaJ4bPvR8jILLQ-156" value="" style="endArrow=none;dashed=1;html=1;dashPattern=1 3;strokeWidth=2;rounded=0;" parent="1" edge="1">
          <mxGeometry width="50" height="50" relative="1" as="geometry">
            <mxPoint x="566.88" y="2100" as="sourcePoint" />
            <mxPoint x="556.88" y="700" as="targetPoint" />
          </mxGeometry>
        </mxCell>
        <mxCell id="GcIDJ9KaJ4bPvR8jILLQ-1" value="&lt;h1 style=&quot;margin-top: 0px;&quot;&gt;ChristmasNightFever&lt;/h1&gt;&lt;div&gt;いわゆるバカゲー&lt;/div&gt;&lt;div&gt;&lt;br&gt;&lt;/div&gt;&lt;div&gt;&lt;span style=&quot;text-wrap: nowrap;&quot;&gt;季節感もちょうどいいし、Playerキャラクターはサンタクロースで、&lt;/span&gt;&lt;div style=&quot;text-wrap: nowrap;&quot;&gt;敵キャラとなるのは子どもにする。&lt;/div&gt;&lt;div style=&quot;text-wrap: nowrap;&quot;&gt;ようは見つからずに煙突のある家までたどり着けるかというゲーム&lt;/div&gt;&lt;div style=&quot;text-wrap: nowrap;&quot;&gt;を攻撃のできないメタルギア風に&lt;/div&gt;&lt;/div&gt;" style="text;html=1;whiteSpace=wrap;overflow=hidden;rounded=0;align=left;" parent="1" vertex="1">
          <mxGeometry x="30" y="20" width="400" height="140" as="geometry" />
        </mxCell>
        <mxCell id="GcIDJ9KaJ4bPvR8jILLQ-3" value="武器選択画面などはオミット" style="text;html=1;align=center;verticalAlign=middle;resizable=0;points=[];autosize=1;strokeColor=none;fillColor=none;" parent="1" vertex="1">
          <mxGeometry x="40" y="165" width="180" height="30" as="geometry" />
        </mxCell>
        <mxCell id="GcIDJ9KaJ4bPvR8jILLQ-4" value="Sceneは長い直線形式で一本で行う&lt;div&gt;Start画面はSceneを止めておいてOverlayでClick to startする&lt;/div&gt;" style="text;html=1;align=center;verticalAlign=middle;resizable=0;points=[];autosize=1;strokeColor=none;fillColor=none;" parent="1" vertex="1">
          <mxGeometry x="410" y="145" width="350" height="40" as="geometry" />
        </mxCell>
        <mxCell id="GcIDJ9KaJ4bPvR8jILLQ-5" value="主役キャラは攻撃不可で逃げるだけ&lt;div&gt;右クリックで物音を立てるという事ができ、最も近くにいる敵を引き寄せられる&lt;/div&gt;&lt;div&gt;発見されたらゲームオーバー&lt;/div&gt;&lt;div&gt;操作はwasdとマウスで行う&lt;/div&gt;&lt;div&gt;&lt;br&gt;&lt;/div&gt;&lt;div&gt;TPS操作はAmpliphyAnimationEditorが予想外にだめなので自作したやつ&lt;/div&gt;&lt;div&gt;TPSTest2かPCMのUserControl&lt;/div&gt;&lt;div&gt;兵士の一人ひとりにチェックポイントと探索経路が設定されている&lt;/div&gt;&lt;div&gt;また発見度も遠くで見るとなり、発見した位置に現在地から向かう&lt;/div&gt;&lt;div&gt;発見した位置に何もいなければ最も近いチェックポイントに帰り、探索経路のAIを再び歩く&lt;/div&gt;&lt;div&gt;Cameraの角度はかなり急でほぼ上から見る形になる&lt;/div&gt;&lt;div&gt;CameraUserConの角度制限を変えれば実現可能&lt;/div&gt;" style="text;html=1;align=center;verticalAlign=middle;resizable=0;points=[];autosize=1;strokeColor=none;fillColor=none;" parent="1" vertex="1">
          <mxGeometry x="230" y="195" width="510" height="190" as="geometry" />
        </mxCell>
        <mxCell id="GcIDJ9KaJ4bPvR8jILLQ-101" value="" style="edgeStyle=orthogonalEdgeStyle;rounded=0;orthogonalLoop=1;jettySize=auto;html=1;" parent="1" source="GcIDJ9KaJ4bPvR8jILLQ-6" target="GcIDJ9KaJ4bPvR8jILLQ-100" edge="1">
          <mxGeometry relative="1" as="geometry" />
        </mxCell>
        <mxCell id="GcIDJ9KaJ4bPvR8jILLQ-6" value="&lt;h2&gt;StartPanelController&lt;/h2&gt;&lt;div&gt;（Start to click)を表示する画面&lt;/div&gt;&lt;div&gt;裏のシーン内では敵兵の設置が近い場所では行われている。&lt;/div&gt;&lt;div&gt;Load中のOverlayも兼ねる&lt;/div&gt;" style="rounded=0;whiteSpace=wrap;html=1;" parent="1" vertex="1">
          <mxGeometry x="310" y="718" width="230" height="120" as="geometry" />
        </mxCell>
        <mxCell id="GcIDJ9KaJ4bPvR8jILLQ-98" value="" style="edgeStyle=orthogonalEdgeStyle;rounded=0;orthogonalLoop=1;jettySize=auto;html=1;" parent="1" source="GcIDJ9KaJ4bPvR8jILLQ-7" target="GcIDJ9KaJ4bPvR8jILLQ-79" edge="1">
          <mxGeometry relative="1" as="geometry" />
        </mxCell>
        <mxCell id="GcIDJ9KaJ4bPvR8jILLQ-7" value="&lt;h2&gt;GameManager&lt;/h2&gt;" style="whiteSpace=wrap;html=1;rounded=0;" parent="1" vertex="1">
          <mxGeometry x="75" y="735" width="195" height="95" as="geometry" />
        </mxCell>
        <mxCell id="GcIDJ9KaJ4bPvR8jILLQ-41" style="edgeStyle=orthogonalEdgeStyle;rounded=0;orthogonalLoop=1;jettySize=auto;html=1;entryX=1;entryY=0.5;entryDx=0;entryDy=0;" parent="1" source="GcIDJ9KaJ4bPvR8jILLQ-9" target="GcIDJ9KaJ4bPvR8jILLQ-40" edge="1">
          <mxGeometry relative="1" as="geometry">
            <Array as="points">
              <mxPoint x="940" y="2838.5" />
              <mxPoint x="940" y="3212.5" />
            </Array>
          </mxGeometry>
        </mxCell>
        <mxCell id="GcIDJ9KaJ4bPvR8jILLQ-47" value="enum MakeNoize" style="edgeLabel;html=1;align=center;verticalAlign=middle;resizable=0;points=[];" parent="GcIDJ9KaJ4bPvR8jILLQ-41" vertex="1" connectable="0">
          <mxGeometry x="0.2689" y="-2" relative="1" as="geometry">
            <mxPoint as="offset" />
          </mxGeometry>
        </mxCell>
        <mxCell id="GcIDJ9KaJ4bPvR8jILLQ-66" value="enum IKilled" style="edgeLabel;html=1;align=center;verticalAlign=middle;resizable=0;points=[];" parent="GcIDJ9KaJ4bPvR8jILLQ-41" vertex="1" connectable="0">
          <mxGeometry x="0.0079" y="2" relative="1" as="geometry">
            <mxPoint as="offset" />
          </mxGeometry>
        </mxCell>
        <mxCell id="GcIDJ9KaJ4bPvR8jILLQ-9" value="&lt;h3&gt;UnitControllerの下&lt;/h3&gt;&lt;h3&gt;キャラクター操作系&lt;/h3&gt;&lt;div&gt;PMCのが一番多機能で良さそう&lt;/div&gt;&lt;div&gt;- TPSChara&lt;/div&gt;&lt;div&gt;- TPSUserCon&lt;/div&gt;&lt;div&gt;-&amp;nbsp;&lt;/div&gt;" style="rounded=0;whiteSpace=wrap;html=1;" parent="1" vertex="1">
          <mxGeometry x="980" y="2770" width="200" height="137.5" as="geometry" />
        </mxCell>
        <mxCell id="GcIDJ9KaJ4bPvR8jILLQ-10" value="" style="endArrow=classic;html=1;rounded=0;exitX=-0.008;exitY=0.414;exitDx=0;exitDy=0;exitPerimeter=0;" parent="1" source="GcIDJ9KaJ4bPvR8jILLQ-11" edge="1">
          <mxGeometry width="50" height="50" relative="1" as="geometry">
            <mxPoint x="1260" y="2867.5" as="sourcePoint" />
            <mxPoint x="1130" y="2867.5" as="targetPoint" />
          </mxGeometry>
        </mxCell>
        <mxCell id="GcIDJ9KaJ4bPvR8jILLQ-11" value="UnitsControllerが扱っているが&lt;div&gt;操作系はほぼTPSUserConにある&lt;/div&gt;&lt;div&gt;カメラの方向に歩くのはCameraのTransformを利用しているため&lt;/div&gt;&lt;div&gt;他のControllerに影響されていないはず&lt;/div&gt;" style="text;html=1;align=center;verticalAlign=middle;resizable=0;points=[];autosize=1;strokeColor=none;fillColor=none;" parent="1" vertex="1">
          <mxGeometry x="1270" y="2847.5" width="370" height="70" as="geometry" />
        </mxCell>
        <mxCell id="GcIDJ9KaJ4bPvR8jILLQ-13" style="edgeStyle=orthogonalEdgeStyle;rounded=0;orthogonalLoop=1;jettySize=auto;html=1;entryX=0.5;entryY=1;entryDx=0;entryDy=0;shape=link;" parent="1" source="GcIDJ9KaJ4bPvR8jILLQ-12" target="GcIDJ9KaJ4bPvR8jILLQ-9" edge="1">
          <mxGeometry relative="1" as="geometry" />
        </mxCell>
        <mxCell id="GcIDJ9KaJ4bPvR8jILLQ-12" value="&lt;h3&gt;カメラ周り&lt;/h3&gt;&lt;div&gt;CameraUserControllerのFollowカメラモードを使用、PMCのFollowConは空だった&lt;/div&gt;" style="whiteSpace=wrap;html=1;" parent="1" vertex="1">
          <mxGeometry x="980" y="2957.5" width="200" height="90" as="geometry" />
        </mxCell>
        <mxCell id="GcIDJ9KaJ4bPvR8jILLQ-16" value="" style="edgeStyle=orthogonalEdgeStyle;rounded=0;orthogonalLoop=1;jettySize=auto;html=1;" parent="1" source="GcIDJ9KaJ4bPvR8jILLQ-14" target="GcIDJ9KaJ4bPvR8jILLQ-15" edge="1">
          <mxGeometry relative="1" as="geometry" />
        </mxCell>
        <mxCell id="GcIDJ9KaJ4bPvR8jILLQ-36" style="edgeStyle=orthogonalEdgeStyle;rounded=0;orthogonalLoop=1;jettySize=auto;html=1;" parent="1" source="GcIDJ9KaJ4bPvR8jILLQ-14" target="GcIDJ9KaJ4bPvR8jILLQ-37" edge="1">
          <mxGeometry relative="1" as="geometry">
            <mxPoint x="1155" y="3327.5" as="targetPoint" />
          </mxGeometry>
        </mxCell>
        <mxCell id="GcIDJ9KaJ4bPvR8jILLQ-14" value="&lt;h3&gt;敵キャラクターコントロール&lt;br&gt;&lt;/h3&gt;&lt;div&gt;UnitControllerのIEnumerator MoveTo(Vector3 location)でNavimeshを利用した移動が可能&lt;/div&gt;" style="rounded=0;whiteSpace=wrap;html=1;" parent="1" vertex="1">
          <mxGeometry x="1050" y="3107.5" width="210" height="110" as="geometry" />
        </mxCell>
        <mxCell id="GcIDJ9KaJ4bPvR8jILLQ-19" style="edgeStyle=orthogonalEdgeStyle;rounded=0;orthogonalLoop=1;jettySize=auto;html=1;shape=link;" parent="1" source="GcIDJ9KaJ4bPvR8jILLQ-15" target="GcIDJ9KaJ4bPvR8jILLQ-18" edge="1">
          <mxGeometry relative="1" as="geometry" />
        </mxCell>
        <mxCell id="GcIDJ9KaJ4bPvR8jILLQ-15" value="&lt;h3&gt;敵キャラクターAI&lt;/h3&gt;" style="whiteSpace=wrap;html=1;rounded=0;" parent="1" vertex="1">
          <mxGeometry x="1385" y="3132.5" width="135" height="60" as="geometry" />
        </mxCell>
        <mxCell id="GcIDJ9KaJ4bPvR8jILLQ-26" style="edgeStyle=orthogonalEdgeStyle;rounded=0;orthogonalLoop=1;jettySize=auto;html=1;" parent="1" source="GcIDJ9KaJ4bPvR8jILLQ-18" target="GcIDJ9KaJ4bPvR8jILLQ-25" edge="1">
          <mxGeometry relative="1" as="geometry" />
        </mxCell>
        <mxCell id="GcIDJ9KaJ4bPvR8jILLQ-18" value="CheckPointsとUserCon.Movetoを利用した周回行動" style="rounded=1;whiteSpace=wrap;html=1;" parent="1" vertex="1">
          <mxGeometry x="1365" y="3237.5" width="175" height="60" as="geometry" />
        </mxCell>
        <mxCell id="GcIDJ9KaJ4bPvR8jILLQ-27" style="edgeStyle=orthogonalEdgeStyle;rounded=0;orthogonalLoop=1;jettySize=auto;html=1;" parent="1" source="GcIDJ9KaJ4bPvR8jILLQ-21" target="GcIDJ9KaJ4bPvR8jILLQ-25" edge="1">
          <mxGeometry relative="1" as="geometry" />
        </mxCell>
        <mxCell id="GcIDJ9KaJ4bPvR8jILLQ-21" value="Playerが立てる物音&lt;div&gt;遠くにPlayerを見た&lt;/div&gt;" style="rounded=1;whiteSpace=wrap;html=1;" parent="1" vertex="1">
          <mxGeometry x="1620" y="3117.5" width="120" height="80" as="geometry" />
        </mxCell>
        <mxCell id="GcIDJ9KaJ4bPvR8jILLQ-28" style="edgeStyle=orthogonalEdgeStyle;rounded=0;orthogonalLoop=1;jettySize=auto;html=1;" parent="1" source="GcIDJ9KaJ4bPvR8jILLQ-25" target="GcIDJ9KaJ4bPvR8jILLQ-29" edge="1">
          <mxGeometry relative="1" as="geometry">
            <mxPoint x="1680" y="3357.5" as="targetPoint" />
          </mxGeometry>
        </mxCell>
        <mxCell id="GcIDJ9KaJ4bPvR8jILLQ-25" value="NavMeshで到達可能か？" style="rhombus;whiteSpace=wrap;html=1;" parent="1" vertex="1">
          <mxGeometry x="1600" y="3227.5" width="160" height="80" as="geometry" />
        </mxCell>
        <mxCell id="GcIDJ9KaJ4bPvR8jILLQ-33" style="edgeStyle=orthogonalEdgeStyle;rounded=0;orthogonalLoop=1;jettySize=auto;html=1;" parent="1" source="GcIDJ9KaJ4bPvR8jILLQ-29" target="GcIDJ9KaJ4bPvR8jILLQ-32" edge="1">
          <mxGeometry relative="1" as="geometry" />
        </mxCell>
        <mxCell id="GcIDJ9KaJ4bPvR8jILLQ-29" value="該当する位置&lt;div&gt;に移動&lt;/div&gt;" style="rounded=1;whiteSpace=wrap;html=1;" parent="1" vertex="1">
          <mxGeometry x="1620" y="3347.5" width="120" height="40" as="geometry" />
        </mxCell>
        <mxCell id="GcIDJ9KaJ4bPvR8jILLQ-34" value="" style="edgeStyle=orthogonalEdgeStyle;rounded=0;orthogonalLoop=1;jettySize=auto;html=1;" parent="1" source="GcIDJ9KaJ4bPvR8jILLQ-32" target="GcIDJ9KaJ4bPvR8jILLQ-18" edge="1">
          <mxGeometry relative="1" as="geometry" />
        </mxCell>
        <mxCell id="GcIDJ9KaJ4bPvR8jILLQ-32" value="最も近いCheckPointに移動" style="rounded=1;whiteSpace=wrap;html=1;" parent="1" vertex="1">
          <mxGeometry x="1430" y="3337.5" width="150" height="60" as="geometry" />
        </mxCell>
        <mxCell id="GcIDJ9KaJ4bPvR8jILLQ-37" value="Playerから距離が十分離れている敵キャラは一時凍結する" style="rounded=1;whiteSpace=wrap;html=1;" parent="1" vertex="1">
          <mxGeometry x="1067.5" y="3297.5" width="175" height="60" as="geometry" />
        </mxCell>
        <mxCell id="GcIDJ9KaJ4bPvR8jILLQ-42" value="" style="edgeStyle=orthogonalEdgeStyle;rounded=0;orthogonalLoop=1;jettySize=auto;html=1;shape=link;" parent="1" source="GcIDJ9KaJ4bPvR8jILLQ-38" target="GcIDJ9KaJ4bPvR8jILLQ-40" edge="1">
          <mxGeometry relative="1" as="geometry" />
        </mxCell>
        <mxCell id="GcIDJ9KaJ4bPvR8jILLQ-38" value="&lt;h3&gt;すべてのキャラクターを統括管理&lt;/h3&gt;&lt;h3&gt;AllUnitsController&lt;/h3&gt;&lt;div&gt;キャラクターの設置と凍結&lt;/div&gt;&lt;div&gt;及びキャラクター間の関係をDelegateでキャラクターから取得し対応する各キャラコンに送る。この場合は味方と敵キャラの発見&lt;/div&gt;" style="rounded=0;whiteSpace=wrap;html=1;" parent="1" vertex="1">
          <mxGeometry x="620" y="2937.5" width="220" height="170" as="geometry" />
        </mxCell>
        <mxCell id="GcIDJ9KaJ4bPvR8jILLQ-39" value="PMC＝以前個人制作で作っていたゲーム&lt;div&gt;ゲームとしての要素が多すぎで個人の手に余り、&lt;/div&gt;&lt;div&gt;クオリティを上げることができず、&lt;/div&gt;&lt;div&gt;開発開始から２年経過したため現在開発を休止している&lt;/div&gt;" style="text;html=1;align=center;verticalAlign=middle;resizable=0;points=[];autosize=1;strokeColor=none;fillColor=none;" parent="1" vertex="1">
          <mxGeometry x="520" y="10" width="320" height="70" as="geometry" />
        </mxCell>
        <mxCell id="GcIDJ9KaJ4bPvR8jILLQ-52" style="edgeStyle=orthogonalEdgeStyle;rounded=0;orthogonalLoop=1;jettySize=auto;html=1;" parent="1" source="GcIDJ9KaJ4bPvR8jILLQ-40" target="GcIDJ9KaJ4bPvR8jILLQ-71" edge="1">
          <mxGeometry relative="1" as="geometry">
            <mxPoint x="730" y="3457.5" as="targetPoint" />
          </mxGeometry>
        </mxCell>
        <mxCell id="GcIDJ9KaJ4bPvR8jILLQ-53" value="GameOver" style="edgeLabel;html=1;align=center;verticalAlign=middle;resizable=0;points=[];" parent="GcIDJ9KaJ4bPvR8jILLQ-52" vertex="1" connectable="0">
          <mxGeometry x="0.1832" y="5" relative="1" as="geometry">
            <mxPoint as="offset" />
          </mxGeometry>
        </mxCell>
        <mxCell id="GcIDJ9KaJ4bPvR8jILLQ-67" value="Playerからの enum UnitAction.IKilled" style="edgeLabel;html=1;align=center;verticalAlign=middle;resizable=0;points=[];" parent="GcIDJ9KaJ4bPvR8jILLQ-52" vertex="1" connectable="0">
          <mxGeometry x="-0.5029" y="-5" relative="1" as="geometry">
            <mxPoint as="offset" />
          </mxGeometry>
        </mxCell>
        <mxCell id="GcIDJ9KaJ4bPvR8jILLQ-40" value="&lt;h3&gt;CharacterActionHandler&lt;/h3&gt;&lt;div&gt;ここで渡されたActionを判断し該当UnitConに渡す&lt;/div&gt;&lt;div&gt;IKilledなどゲームが終了するActionもある&lt;/div&gt;" style="rounded=1;whiteSpace=wrap;html=1;" parent="1" vertex="1">
          <mxGeometry x="610" y="3167.5" width="240" height="90" as="geometry" />
        </mxCell>
        <mxCell id="GcIDJ9KaJ4bPvR8jILLQ-45" value="AllUnitsConではキャラクターが自発的に起こしたアクション&lt;div&gt;例えば音を鳴らすなどのアクションはDelegateでUnitConから通知され&lt;/div&gt;&lt;div&gt;他のキャラにこれが関係する場合は該当UnitConの該当関数を実行&lt;/div&gt;&lt;div&gt;これ以外にもキャラクター同士が近い場合など、まずUnit全体で見てこれを判断していく&lt;/div&gt;&lt;div&gt;場合はALlUnitsConのLoopの中で判断が行われて該当UnitConの該当関数を実行&lt;/div&gt;&lt;div&gt;すなわちAllUnitsConの役割は&lt;/div&gt;&lt;div style=&quot;text-align: left;&quot;&gt;&lt;b&gt;1. Unitの設置とDeleteやDisableなどのObjectの操作&lt;/b&gt;&lt;/div&gt;&lt;div style=&quot;text-align: left;&quot;&gt;&lt;b&gt;2. Unitのアクションを判断し他に影響がある場合このアクションと実行者を影響を受けうるものに渡す&lt;/b&gt;&lt;/div&gt;&lt;div&gt;となる&lt;/div&gt;&lt;div&gt;2のアクションの判断と振り分けが大きくなる場合はRelationshipConとして分離することも考えられる&lt;/div&gt;" style="text;html=1;align=center;verticalAlign=middle;resizable=0;points=[];autosize=1;strokeColor=none;fillColor=none;" parent="1" vertex="1">
          <mxGeometry x="170" y="2400" width="580" height="160" as="geometry" />
        </mxCell>
        <mxCell id="GcIDJ9KaJ4bPvR8jILLQ-58" style="edgeStyle=orthogonalEdgeStyle;rounded=0;orthogonalLoop=1;jettySize=auto;html=1;" parent="1" source="GcIDJ9KaJ4bPvR8jILLQ-46" target="GcIDJ9KaJ4bPvR8jILLQ-60" edge="1">
          <mxGeometry relative="1" as="geometry">
            <mxPoint x="470" y="3397.5" as="targetPoint" />
          </mxGeometry>
        </mxCell>
        <mxCell id="GcIDJ9KaJ4bPvR8jILLQ-64" value="AllUnitCon.IsUnitApproaching" style="edgeLabel;html=1;align=center;verticalAlign=middle;resizable=0;points=[];" parent="GcIDJ9KaJ4bPvR8jILLQ-58" vertex="1" connectable="0">
          <mxGeometry x="0.6014" y="1" relative="1" as="geometry">
            <mxPoint x="1" as="offset" />
          </mxGeometry>
        </mxCell>
        <mxCell id="GcIDJ9KaJ4bPvR8jILLQ-63" style="edgeStyle=orthogonalEdgeStyle;rounded=0;orthogonalLoop=1;jettySize=auto;html=1;entryX=0.75;entryY=0;entryDx=0;entryDy=0;" parent="1" source="GcIDJ9KaJ4bPvR8jILLQ-46" target="GcIDJ9KaJ4bPvR8jILLQ-62" edge="1">
          <mxGeometry relative="1" as="geometry" />
        </mxCell>
        <mxCell id="GcIDJ9KaJ4bPvR8jILLQ-65" value="AllUnitCon.IsUnitArrivedCheckPoint" style="edgeLabel;html=1;align=center;verticalAlign=middle;resizable=0;points=[];" parent="GcIDJ9KaJ4bPvR8jILLQ-63" vertex="1" connectable="0">
          <mxGeometry x="0.7086" y="-1" relative="1" as="geometry">
            <mxPoint as="offset" />
          </mxGeometry>
        </mxCell>
        <mxCell id="GcIDJ9KaJ4bPvR8jILLQ-46" value="&lt;h3&gt;RelationshipLoop()&lt;/h3&gt;&lt;div&gt;Unit全体で見た際に関係性が生まれた者同士にこれを通知する&lt;/div&gt;&lt;div&gt;接近しているという通知など&lt;/div&gt;" style="rounded=1;whiteSpace=wrap;html=1;" parent="1" vertex="1">
          <mxGeometry x="350" y="3167.5" width="240" height="100" as="geometry" />
        </mxCell>
        <mxCell id="GcIDJ9KaJ4bPvR8jILLQ-48" style="edgeStyle=orthogonalEdgeStyle;rounded=0;orthogonalLoop=1;jettySize=auto;html=1;entryX=1.015;entryY=0.875;entryDx=0;entryDy=0;entryPerimeter=0;" parent="1" source="GcIDJ9KaJ4bPvR8jILLQ-14" target="GcIDJ9KaJ4bPvR8jILLQ-40" edge="1">
          <mxGeometry relative="1" as="geometry" />
        </mxCell>
        <mxCell id="GcIDJ9KaJ4bPvR8jILLQ-49" value="enum FindYou" style="edgeLabel;html=1;align=center;verticalAlign=middle;resizable=0;points=[];" parent="GcIDJ9KaJ4bPvR8jILLQ-48" vertex="1" connectable="0">
          <mxGeometry x="0.6581" y="-4" relative="1" as="geometry">
            <mxPoint as="offset" />
          </mxGeometry>
        </mxCell>
        <mxCell id="GcIDJ9KaJ4bPvR8jILLQ-51" style="edgeStyle=orthogonalEdgeStyle;rounded=0;orthogonalLoop=1;jettySize=auto;html=1;shape=link;" parent="1" source="GcIDJ9KaJ4bPvR8jILLQ-38" target="GcIDJ9KaJ4bPvR8jILLQ-46" edge="1">
          <mxGeometry relative="1" as="geometry">
            <Array as="points">
              <mxPoint x="730" y="3127.5" />
              <mxPoint x="429" y="3127.5" />
            </Array>
          </mxGeometry>
        </mxCell>
        <mxCell id="GcIDJ9KaJ4bPvR8jILLQ-55" style="edgeStyle=orthogonalEdgeStyle;rounded=0;orthogonalLoop=1;jettySize=auto;html=1;" parent="1" source="GcIDJ9KaJ4bPvR8jILLQ-54" edge="1">
          <mxGeometry relative="1" as="geometry">
            <mxPoint x="910" y="3117.5" as="targetPoint" />
          </mxGeometry>
        </mxCell>
        <mxCell id="GcIDJ9KaJ4bPvR8jILLQ-57" style="edgeStyle=orthogonalEdgeStyle;rounded=0;orthogonalLoop=1;jettySize=auto;html=1;" parent="1" source="GcIDJ9KaJ4bPvR8jILLQ-54" edge="1">
          <mxGeometry relative="1" as="geometry">
            <mxPoint x="880" y="3237.5" as="targetPoint" />
          </mxGeometry>
        </mxCell>
        <mxCell id="GcIDJ9KaJ4bPvR8jILLQ-54" value="enum UnitAction" style="text;html=1;align=center;verticalAlign=middle;resizable=0;points=[];autosize=1;strokeColor=none;fillColor=none;" parent="1" vertex="1">
          <mxGeometry x="812.5" y="2877.5" width="110" height="30" as="geometry" />
        </mxCell>
        <mxCell id="GcIDJ9KaJ4bPvR8jILLQ-60" value="UnitController.UnitApproaching( others[])&lt;div&gt;Unit同士が近くに接近している&lt;/div&gt;" style="rounded=1;whiteSpace=wrap;html=1;" parent="1" vertex="1">
          <mxGeometry x="430" y="3407.5" width="240" height="60" as="geometry" />
        </mxCell>
        <mxCell id="GcIDJ9KaJ4bPvR8jILLQ-62" value="&lt;div&gt;&lt;span style=&quot;background-color: initial;&quot;&gt;UnitController.ArrivedCheckPoint(point)&lt;/span&gt;&lt;br&gt;&lt;/div&gt;&lt;div&gt;&lt;span style=&quot;background-color: initial;&quot;&gt;&lt;br&gt;&lt;/span&gt;&lt;/div&gt;&lt;div&gt;&lt;/div&gt;&lt;div&gt;Unitが地点に到着したことを通知する&lt;/div&gt;&lt;div&gt;イベントやゴール等を含みUnitCon以外にも通知が飛ぶ&lt;/div&gt;" style="rounded=1;whiteSpace=wrap;html=1;" parent="1" vertex="1">
          <mxGeometry x="80" y="3407.5" width="315" height="90" as="geometry" />
        </mxCell>
        <mxCell id="GcIDJ9KaJ4bPvR8jILLQ-68" value="複数Stageを見越した作りにするため、&lt;div&gt;MainGameに関連するObjectはすべてStageごとのプレハブにする&lt;/div&gt;&lt;div&gt;HotReloadが常駐のMainSceneとステージごとに変わるGameSceneにすると&lt;/div&gt;&lt;div&gt;動作がおかしくなった事があるため&lt;/div&gt;" style="text;html=1;align=center;verticalAlign=middle;resizable=0;points=[];autosize=1;strokeColor=none;fillColor=none;" parent="1" vertex="1">
          <mxGeometry x="35" y="390" width="430" height="70" as="geometry" />
        </mxCell>
        <mxCell id="GcIDJ9KaJ4bPvR8jILLQ-71" value="&lt;div&gt;EndStage()&lt;/div&gt;すべてのEnemy&lt;div&gt;及びPlayerの破棄&lt;/div&gt;" style="rounded=1;whiteSpace=wrap;html=1;" parent="1" vertex="1">
          <mxGeometry x="670" y="3497.5" width="120" height="60" as="geometry" />
        </mxCell>
        <mxCell id="GcIDJ9KaJ4bPvR8jILLQ-73" value="プレハブ内には主に地形データとその他のオブジェクト及び&lt;div&gt;CheckPointなどを管理するStageObjectsControllerが含まれる&lt;/div&gt;&lt;div&gt;AllUnitsControllerがStageObjectsControllerの指定する地点にUnitをおいていく&lt;/div&gt;" style="text;html=1;align=center;verticalAlign=middle;resizable=0;points=[];autosize=1;strokeColor=none;fillColor=none;" parent="1" vertex="1">
          <mxGeometry x="25" y="490" width="440" height="60" as="geometry" />
        </mxCell>
        <mxCell id="GcIDJ9KaJ4bPvR8jILLQ-76" value="&lt;h1&gt;キャラクターとゲームプレイの詳細処理&lt;/h1&gt;" style="text;html=1;align=center;verticalAlign=middle;resizable=0;points=[];autosize=1;strokeColor=none;fillColor=none;" parent="1" vertex="1">
          <mxGeometry x="730" y="2700" width="460" height="70" as="geometry" />
        </mxCell>
        <mxCell id="GcIDJ9KaJ4bPvR8jILLQ-77" value="&lt;h2&gt;全体の流れ&lt;/h2&gt;&lt;div&gt;ゲームが始まりクリア及びゲームオーバーするまで&lt;/div&gt;&lt;div&gt;縦に処理が流れていく&lt;/div&gt;&lt;div&gt;イメージとして右に行くほど下流のController&lt;/div&gt;" style="text;html=1;align=center;verticalAlign=middle;resizable=0;points=[];autosize=1;strokeColor=none;fillColor=none;" parent="1" vertex="1">
          <mxGeometry x="275" y="550" width="300" height="110" as="geometry" />
        </mxCell>
        <mxCell id="GcIDJ9KaJ4bPvR8jILLQ-83" value="" style="edgeStyle=orthogonalEdgeStyle;rounded=0;orthogonalLoop=1;jettySize=auto;html=1;" parent="1" source="GcIDJ9KaJ4bPvR8jILLQ-79" target="GcIDJ9KaJ4bPvR8jILLQ-82" edge="1">
          <mxGeometry relative="1" as="geometry">
            <Array as="points">
              <mxPoint x="945" y="940" />
            </Array>
          </mxGeometry>
        </mxCell>
        <mxCell id="GcIDJ9KaJ4bPvR8jILLQ-84" value="LoadStage" style="edgeLabel;html=1;align=center;verticalAlign=middle;resizable=0;points=[];" parent="GcIDJ9KaJ4bPvR8jILLQ-83" vertex="1" connectable="0">
          <mxGeometry x="-0.0695" y="-1" relative="1" as="geometry">
            <mxPoint as="offset" />
          </mxGeometry>
        </mxCell>
        <mxCell id="GcIDJ9KaJ4bPvR8jILLQ-99" value="" style="edgeStyle=orthogonalEdgeStyle;rounded=0;orthogonalLoop=1;jettySize=auto;html=1;" parent="1" source="GcIDJ9KaJ4bPvR8jILLQ-79" target="GcIDJ9KaJ4bPvR8jILLQ-89" edge="1">
          <mxGeometry relative="1" as="geometry" />
        </mxCell>
        <mxCell id="GcIDJ9KaJ4bPvR8jILLQ-79" value="チュートリアル用にステージを作るため、本ステージorチュートリアルで読み込む" style="rounded=1;whiteSpace=wrap;html=1;" parent="1" vertex="1">
          <mxGeometry x="80" y="880" width="190" height="60" as="geometry" />
        </mxCell>
        <mxCell id="GcIDJ9KaJ4bPvR8jILLQ-86" style="edgeStyle=orthogonalEdgeStyle;rounded=0;orthogonalLoop=1;jettySize=auto;html=1;entryX=0.5;entryY=0;entryDx=0;entryDy=0;" parent="1" source="GcIDJ9KaJ4bPvR8jILLQ-80" target="GcIDJ9KaJ4bPvR8jILLQ-85" edge="1">
          <mxGeometry relative="1" as="geometry" />
        </mxCell>
        <mxCell id="GcIDJ9KaJ4bPvR8jILLQ-80" value="&lt;h2&gt;AllUnitsController&lt;/h2&gt;&lt;div&gt;and CameraUserCon&lt;/div&gt;" style="rounded=0;whiteSpace=wrap;html=1;" parent="1" vertex="1">
          <mxGeometry x="587.5" y="735" width="190" height="103" as="geometry" />
        </mxCell>
        <mxCell id="GcIDJ9KaJ4bPvR8jILLQ-91" style="edgeStyle=orthogonalEdgeStyle;rounded=0;orthogonalLoop=1;jettySize=auto;html=1;" parent="1" source="GcIDJ9KaJ4bPvR8jILLQ-82" target="GcIDJ9KaJ4bPvR8jILLQ-89" edge="1">
          <mxGeometry relative="1" as="geometry">
            <Array as="points">
              <mxPoint x="945" y="1055" />
              <mxPoint x="180" y="1055" />
            </Array>
          </mxGeometry>
        </mxCell>
        <mxCell id="GcIDJ9KaJ4bPvR8jILLQ-94" value="" style="edgeStyle=orthogonalEdgeStyle;rounded=0;orthogonalLoop=1;jettySize=auto;html=1;" parent="1" source="GcIDJ9KaJ4bPvR8jILLQ-82" target="GcIDJ9KaJ4bPvR8jILLQ-93" edge="1">
          <mxGeometry relative="1" as="geometry">
            <Array as="points">
              <mxPoint x="560" y="1115" />
              <mxPoint x="560" y="1115" />
            </Array>
          </mxGeometry>
        </mxCell>
        <mxCell id="GcIDJ9KaJ4bPvR8jILLQ-82" value="&lt;h2&gt;StageObjectsController&lt;/h2&gt;&lt;div&gt;Prehabの中に入っているステージの内容を記録し必要であれば処理するコントローラー&lt;/div&gt;" style="rounded=0;whiteSpace=wrap;html=1;" parent="1" vertex="1">
          <mxGeometry x="915" y="1060" width="220" height="110" as="geometry" />
        </mxCell>
        <mxCell id="GcIDJ9KaJ4bPvR8jILLQ-104" value="" style="edgeStyle=orthogonalEdgeStyle;rounded=0;orthogonalLoop=1;jettySize=auto;html=1;" parent="1" source="GcIDJ9KaJ4bPvR8jILLQ-85" target="GcIDJ9KaJ4bPvR8jILLQ-103" edge="1">
          <mxGeometry relative="1" as="geometry" />
        </mxCell>
        <mxCell id="GcIDJ9KaJ4bPvR8jILLQ-85" value="StageLoaded(StageObjectController)" style="rounded=1;whiteSpace=wrap;html=1;" parent="1" vertex="1">
          <mxGeometry x="566.88" y="1195" width="231.25" height="60" as="geometry" />
        </mxCell>
        <mxCell id="GcIDJ9KaJ4bPvR8jILLQ-95" value="" style="edgeStyle=orthogonalEdgeStyle;rounded=0;orthogonalLoop=1;jettySize=auto;html=1;" parent="1" source="GcIDJ9KaJ4bPvR8jILLQ-89" target="GcIDJ9KaJ4bPvR8jILLQ-93" edge="1">
          <mxGeometry relative="1" as="geometry" />
        </mxCell>
        <mxCell id="GcIDJ9KaJ4bPvR8jILLQ-89" value="プロパティとしてStageObjectsControllerを保持" style="rounded=1;whiteSpace=wrap;html=1;" parent="1" vertex="1">
          <mxGeometry x="95" y="980" width="170" height="60" as="geometry" />
        </mxCell>
        <mxCell id="GcIDJ9KaJ4bPvR8jILLQ-97" style="edgeStyle=orthogonalEdgeStyle;rounded=0;orthogonalLoop=1;jettySize=auto;html=1;entryX=0;entryY=0.5;entryDx=0;entryDy=0;" parent="1" source="GcIDJ9KaJ4bPvR8jILLQ-93" target="GcIDJ9KaJ4bPvR8jILLQ-85" edge="1">
          <mxGeometry relative="1" as="geometry">
            <Array as="points">
              <mxPoint x="180" y="1225" />
            </Array>
          </mxGeometry>
        </mxCell>
        <mxCell id="GcIDJ9KaJ4bPvR8jILLQ-106" style="edgeStyle=orthogonalEdgeStyle;rounded=0;orthogonalLoop=1;jettySize=auto;html=1;entryX=0.5;entryY=0;entryDx=0;entryDy=0;" parent="1" source="GcIDJ9KaJ4bPvR8jILLQ-93" target="GcIDJ9KaJ4bPvR8jILLQ-105" edge="1">
          <mxGeometry relative="1" as="geometry" />
        </mxCell>
        <mxCell id="GcIDJ9KaJ4bPvR8jILLQ-93" value="StageLoaded" style="rounded=1;whiteSpace=wrap;html=1;" parent="1" vertex="1">
          <mxGeometry x="120" y="1095" width="120" height="40" as="geometry" />
        </mxCell>
        <mxCell id="GcIDJ9KaJ4bPvR8jILLQ-102" style="edgeStyle=orthogonalEdgeStyle;rounded=0;orthogonalLoop=1;jettySize=auto;html=1;" parent="1" source="GcIDJ9KaJ4bPvR8jILLQ-100" target="GcIDJ9KaJ4bPvR8jILLQ-79" edge="1">
          <mxGeometry relative="1" as="geometry" />
        </mxCell>
        <mxCell id="GcIDJ9KaJ4bPvR8jILLQ-100" value="ShowStartPanelAtAwake（）&lt;div&gt;StartでButtonを選択&lt;/div&gt;" style="rounded=1;whiteSpace=wrap;html=1;" parent="1" vertex="1">
          <mxGeometry x="342.5" y="860" width="145" height="60" as="geometry" />
        </mxCell>
        <mxCell id="GcIDJ9KaJ4bPvR8jILLQ-108" style="edgeStyle=orthogonalEdgeStyle;rounded=0;orthogonalLoop=1;jettySize=auto;html=1;entryX=1;entryY=0.5;entryDx=0;entryDy=0;" parent="1" source="GcIDJ9KaJ4bPvR8jILLQ-103" target="GcIDJ9KaJ4bPvR8jILLQ-105" edge="1">
          <mxGeometry relative="1" as="geometry" />
        </mxCell>
        <mxCell id="GcIDJ9KaJ4bPvR8jILLQ-103" value="LoadAndSetUnits()&lt;div&gt;StageObjectControllerに保存されているStart位置とEnemyの位置にUnitのPrehabを設置する&lt;/div&gt;" style="whiteSpace=wrap;html=1;rounded=1;" parent="1" vertex="1">
          <mxGeometry x="553.74" y="1290" width="257.51" height="60" as="geometry" />
        </mxCell>
        <mxCell id="GcIDJ9KaJ4bPvR8jILLQ-111" style="edgeStyle=orthogonalEdgeStyle;rounded=0;orthogonalLoop=1;jettySize=auto;html=1;entryX=0;entryY=0.5;entryDx=0;entryDy=0;" parent="1" source="GcIDJ9KaJ4bPvR8jILLQ-105" target="GcIDJ9KaJ4bPvR8jILLQ-110" edge="1">
          <mxGeometry relative="1" as="geometry" />
        </mxCell>
        <mxCell id="GcIDJ9KaJ4bPvR8jILLQ-133" style="edgeStyle=orthogonalEdgeStyle;rounded=0;orthogonalLoop=1;jettySize=auto;html=1;" parent="1" source="GcIDJ9KaJ4bPvR8jILLQ-105" target="GcIDJ9KaJ4bPvR8jILLQ-128" edge="1">
          <mxGeometry relative="1" as="geometry" />
        </mxCell>
        <mxCell id="GcIDJ9KaJ4bPvR8jILLQ-105" value="UnitsLoaded" style="rounded=1;whiteSpace=wrap;html=1;" parent="1" vertex="1">
          <mxGeometry x="120" y="1250" width="120" height="50" as="geometry" />
        </mxCell>
        <mxCell id="GcIDJ9KaJ4bPvR8jILLQ-110" value="DisableStartPanel" style="rounded=1;whiteSpace=wrap;html=1;" parent="1" vertex="1">
          <mxGeometry x="365" y="1350" width="120" height="60" as="geometry" />
        </mxCell>
        <mxCell id="GcIDJ9KaJ4bPvR8jILLQ-112" value="" style="endArrow=none;dashed=1;html=1;rounded=0;" parent="1" edge="1">
          <mxGeometry width="50" height="50" relative="1" as="geometry">
            <mxPoint x="95" y="1450" as="sourcePoint" />
            <mxPoint x="1150" y="1450" as="targetPoint" />
          </mxGeometry>
        </mxCell>
        <mxCell id="GcIDJ9KaJ4bPvR8jILLQ-113" value="&lt;span style=&quot;background-color: initial;&quot;&gt;Unitを操作可能に&lt;/span&gt;" style="text;html=1;align=center;verticalAlign=middle;resizable=0;points=[];autosize=1;strokeColor=none;fillColor=none;" parent="1" vertex="1">
          <mxGeometry y="1410" width="120" height="30" as="geometry" />
        </mxCell>
        <mxCell id="GcIDJ9KaJ4bPvR8jILLQ-120" style="edgeStyle=orthogonalEdgeStyle;rounded=0;orthogonalLoop=1;jettySize=auto;html=1;shape=link;exitX=1;exitY=0.5;exitDx=0;exitDy=0;" parent="1" source="GcIDJ9KaJ4bPvR8jILLQ-144" target="GcIDJ9KaJ4bPvR8jILLQ-119" edge="1">
          <mxGeometry relative="1" as="geometry">
            <mxPoint x="774.9999999999998" y="1530" as="sourcePoint" />
          </mxGeometry>
        </mxCell>
        <mxCell id="GcIDJ9KaJ4bPvR8jILLQ-126" style="edgeStyle=orthogonalEdgeStyle;rounded=0;orthogonalLoop=1;jettySize=auto;html=1;exitX=0;exitY=0.5;exitDx=0;exitDy=0;" parent="1" source="GcIDJ9KaJ4bPvR8jILLQ-144" target="GcIDJ9KaJ4bPvR8jILLQ-124" edge="1">
          <mxGeometry relative="1" as="geometry">
            <mxPoint x="613.6969696969697" y="1530" as="sourcePoint" />
          </mxGeometry>
        </mxCell>
        <mxCell id="GcIDJ9KaJ4bPvR8jILLQ-122" value="" style="edgeStyle=orthogonalEdgeStyle;rounded=0;orthogonalLoop=1;jettySize=auto;html=1;" parent="1" source="GcIDJ9KaJ4bPvR8jILLQ-119" target="GcIDJ9KaJ4bPvR8jILLQ-121" edge="1">
          <mxGeometry relative="1" as="geometry" />
        </mxCell>
        <mxCell id="GcIDJ9KaJ4bPvR8jILLQ-119" value="GameManagerのStageObjectConを参照して&lt;div&gt;&lt;span style=&quot;font-size: 11px; text-wrap: nowrap; background-color: rgb(24, 20, 29);&quot;&gt;AllUnitCon.IsUnitArrivedCheckPoint&lt;/span&gt;&lt;br&gt;&lt;/div&gt;&lt;div&gt;&lt;span style=&quot;font-size: 11px; text-wrap: nowrap; background-color: rgb(24, 20, 29);&quot;&gt;がGoalにたどり着く&lt;/span&gt;&lt;/div&gt;" style="rounded=1;whiteSpace=wrap;html=1;" parent="1" vertex="1">
          <mxGeometry x="645" y="1580" width="260" height="60" as="geometry" />
        </mxCell>
        <mxCell id="GcIDJ9KaJ4bPvR8jILLQ-262" value="" style="edgeStyle=orthogonalEdgeStyle;rounded=0;orthogonalLoop=1;jettySize=auto;html=1;" parent="1" source="GcIDJ9KaJ4bPvR8jILLQ-121" target="GcIDJ9KaJ4bPvR8jILLQ-261" edge="1">
          <mxGeometry relative="1" as="geometry" />
        </mxCell>
        <mxCell id="GcIDJ9KaJ4bPvR8jILLQ-121" value="UnitConでなにか処理する場合は行う&lt;div&gt;例えば勝利ポーズ&lt;/div&gt;" style="whiteSpace=wrap;html=1;rounded=1;" parent="1" vertex="1">
          <mxGeometry x="715" y="1770" width="120" height="60" as="geometry" />
        </mxCell>
        <mxCell id="GcIDJ9KaJ4bPvR8jILLQ-130" value="" style="edgeStyle=orthogonalEdgeStyle;rounded=0;orthogonalLoop=1;jettySize=auto;html=1;" parent="1" source="GcIDJ9KaJ4bPvR8jILLQ-124" target="GcIDJ9KaJ4bPvR8jILLQ-129" edge="1">
          <mxGeometry relative="1" as="geometry" />
        </mxCell>
        <mxCell id="GcIDJ9KaJ4bPvR8jILLQ-124" value="PlayerのUnitConから&lt;div&gt;&lt;span style=&quot;font-size: 11px; text-wrap: nowrap; background-color: rgb(24, 20, 29);&quot;&gt;enum UnitAction.IKilled&lt;/span&gt;&lt;br&gt;&lt;/div&gt;&lt;div&gt;&lt;span style=&quot;font-size: 11px; text-wrap: nowrap; background-color: rgb(24, 20, 29);&quot;&gt;のイベントがdelegateに&lt;/span&gt;&lt;/div&gt;&lt;div&gt;&lt;span style=&quot;font-size: 11px; text-wrap: nowrap; background-color: rgb(24, 20, 29);&quot;&gt;登録された関数に送られる&lt;/span&gt;&lt;/div&gt;" style="rounded=1;whiteSpace=wrap;html=1;" parent="1" vertex="1">
          <mxGeometry x="535" y="1670" width="170" height="70" as="geometry" />
        </mxCell>
        <mxCell id="GcIDJ9KaJ4bPvR8jILLQ-127" value="UnitConがAllUnitsConのChanracterActionメソッドを参照する形のdelegateを持っている&lt;div&gt;UnitConがAllUnitConにイベントを伝えるときはこれを使用&lt;/div&gt;" style="text;html=1;align=center;verticalAlign=middle;resizable=0;points=[];autosize=1;strokeColor=none;fillColor=none;" parent="1" vertex="1">
          <mxGeometry x="1240" y="2740" width="500" height="40" as="geometry" />
        </mxCell>
        <mxCell id="GcIDJ9KaJ4bPvR8jILLQ-136" style="edgeStyle=orthogonalEdgeStyle;rounded=0;orthogonalLoop=1;jettySize=auto;html=1;entryX=0;entryY=0.5;entryDx=0;entryDy=0;" parent="1" source="GcIDJ9KaJ4bPvR8jILLQ-128" target="GcIDJ9KaJ4bPvR8jILLQ-135" edge="1">
          <mxGeometry relative="1" as="geometry">
            <Array as="points">
              <mxPoint x="195" y="1890" />
            </Array>
          </mxGeometry>
        </mxCell>
        <mxCell id="GcIDJ9KaJ4bPvR8jILLQ-139" style="edgeStyle=orthogonalEdgeStyle;rounded=0;orthogonalLoop=1;jettySize=auto;html=1;" parent="1" source="GcIDJ9KaJ4bPvR8jILLQ-128" target="GcIDJ9KaJ4bPvR8jILLQ-137" edge="1">
          <mxGeometry relative="1" as="geometry" />
        </mxCell>
        <mxCell id="GcIDJ9KaJ4bPvR8jILLQ-128" value="IENumerator EndGame(win or lose)" style="rounded=1;whiteSpace=wrap;html=1;" parent="1" vertex="1">
          <mxGeometry x="110" y="1800" width="155" height="60" as="geometry" />
        </mxCell>
        <mxCell id="GcIDJ9KaJ4bPvR8jILLQ-131" style="edgeStyle=orthogonalEdgeStyle;rounded=0;orthogonalLoop=1;jettySize=auto;html=1;entryX=0;entryY=0.5;entryDx=0;entryDy=0;shape=link;" parent="1" source="GcIDJ9KaJ4bPvR8jILLQ-129" target="GcIDJ9KaJ4bPvR8jILLQ-121" edge="1">
          <mxGeometry relative="1" as="geometry" />
        </mxCell>
        <mxCell id="GcIDJ9KaJ4bPvR8jILLQ-132" style="edgeStyle=orthogonalEdgeStyle;rounded=0;orthogonalLoop=1;jettySize=auto;html=1;entryX=1;entryY=0.5;entryDx=0;entryDy=0;" parent="1" source="GcIDJ9KaJ4bPvR8jILLQ-129" target="GcIDJ9KaJ4bPvR8jILLQ-128" edge="1">
          <mxGeometry relative="1" as="geometry" />
        </mxCell>
        <mxCell id="GcIDJ9KaJ4bPvR8jILLQ-129" value="UnitConで行いたい動作があれば行う" style="rounded=1;whiteSpace=wrap;html=1;" parent="1" vertex="1">
          <mxGeometry x="566.88" y="1770" width="120" height="60" as="geometry" />
        </mxCell>
        <mxCell id="GcIDJ9KaJ4bPvR8jILLQ-153" style="edgeStyle=orthogonalEdgeStyle;rounded=0;orthogonalLoop=1;jettySize=auto;html=1;" parent="1" source="GcIDJ9KaJ4bPvR8jILLQ-135" target="GcIDJ9KaJ4bPvR8jILLQ-152" edge="1">
          <mxGeometry relative="1" as="geometry" />
        </mxCell>
        <mxCell id="GcIDJ9KaJ4bPvR8jILLQ-135" value="IEnumerator EnableEndPanel" style="rounded=1;whiteSpace=wrap;html=1;" parent="1" vertex="1">
          <mxGeometry x="365" y="1860" width="120" height="60" as="geometry" />
        </mxCell>
        <mxCell id="GcIDJ9KaJ4bPvR8jILLQ-141" style="edgeStyle=orthogonalEdgeStyle;rounded=0;orthogonalLoop=1;jettySize=auto;html=1;exitX=0.5;exitY=1;exitDx=0;exitDy=0;" parent="1" source="GcIDJ9KaJ4bPvR8jILLQ-128" target="GcIDJ9KaJ4bPvR8jILLQ-140" edge="1">
          <mxGeometry relative="1" as="geometry">
            <Array as="points">
              <mxPoint x="187" y="1930" />
              <mxPoint x="695" y="1930" />
            </Array>
          </mxGeometry>
        </mxCell>
        <mxCell id="GcIDJ9KaJ4bPvR8jILLQ-148" style="edgeStyle=orthogonalEdgeStyle;rounded=0;orthogonalLoop=1;jettySize=auto;html=1;" parent="1" source="GcIDJ9KaJ4bPvR8jILLQ-137" target="GcIDJ9KaJ4bPvR8jILLQ-149" edge="1">
          <mxGeometry relative="1" as="geometry">
            <mxPoint x="945" y="2020.0000000000005" as="targetPoint" />
            <Array as="points">
              <mxPoint x="187" y="2040" />
              <mxPoint x="945" y="2040" />
            </Array>
          </mxGeometry>
        </mxCell>
        <mxCell id="GcIDJ9KaJ4bPvR8jILLQ-137" value="StartUnloadStage&lt;div&gt;StageObjectConを破棄&lt;/div&gt;" style="rounded=1;whiteSpace=wrap;html=1;" parent="1" vertex="1">
          <mxGeometry x="127.5" y="1950" width="120" height="60" as="geometry" />
        </mxCell>
        <mxCell id="GcIDJ9KaJ4bPvR8jILLQ-140" value="UnloadUnits&lt;div&gt;CaemraUserCon&lt;/div&gt;&lt;div&gt;からUnitを外す&lt;/div&gt;" style="rounded=1;whiteSpace=wrap;html=1;" parent="1" vertex="1">
          <mxGeometry x="635" y="1950" width="120" height="60" as="geometry" />
        </mxCell>
        <mxCell id="GcIDJ9KaJ4bPvR8jILLQ-144" value="FindYou&amp;nbsp;&lt;div&gt;or&amp;nbsp;&lt;/div&gt;&lt;div&gt;Goal&lt;/div&gt;" style="rhombus;whiteSpace=wrap;html=1;" parent="1" vertex="1">
          <mxGeometry x="610" y="1460" width="170" height="80" as="geometry" />
        </mxCell>
        <mxCell id="GcIDJ9KaJ4bPvR8jILLQ-146" value="" style="endArrow=none;dashed=1;html=1;rounded=0;" parent="1" edge="1">
          <mxGeometry width="50" height="50" relative="1" as="geometry">
            <mxPoint x="25" y="1760" as="sourcePoint" />
            <mxPoint x="1185" y="1760" as="targetPoint" />
          </mxGeometry>
        </mxCell>
        <mxCell id="GcIDJ9KaJ4bPvR8jILLQ-147" value="Unitの操作停止" style="text;html=1;align=center;verticalAlign=middle;resizable=0;points=[];autosize=1;strokeColor=none;fillColor=none;" parent="1" vertex="1">
          <mxGeometry x="15" y="1720" width="100" height="30" as="geometry" />
        </mxCell>
        <mxCell id="GcIDJ9KaJ4bPvR8jILLQ-149" value="Delete" style="rounded=1;whiteSpace=wrap;html=1;" parent="1" vertex="1">
          <mxGeometry x="975" y="1990.0000000000005" width="120" height="60" as="geometry" />
        </mxCell>
        <mxCell id="GcIDJ9KaJ4bPvR8jILLQ-160" value="" style="edgeStyle=orthogonalEdgeStyle;rounded=0;orthogonalLoop=1;jettySize=auto;html=1;" parent="1" source="GcIDJ9KaJ4bPvR8jILLQ-152" target="GcIDJ9KaJ4bPvR8jILLQ-161" edge="1">
          <mxGeometry relative="1" as="geometry">
            <mxPoint x="425" y="2230" as="targetPoint" />
          </mxGeometry>
        </mxCell>
        <mxCell id="GcIDJ9KaJ4bPvR8jILLQ-152" value="&lt;div&gt;Try again&lt;/div&gt;&lt;div&gt;or&lt;/div&gt;&lt;div&gt;End Game&lt;/div&gt;" style="rhombus;whiteSpace=wrap;html=1;" parent="1" vertex="1">
          <mxGeometry x="340" y="2060" width="170" height="80" as="geometry" />
        </mxCell>
        <mxCell id="GcIDJ9KaJ4bPvR8jILLQ-154" value="Unitが敵を発見している度合いなどの各プロパティは&lt;div&gt;AllUnitsCOnではなくUnitConで保持しておくこと&lt;/div&gt;&lt;div&gt;UnitConをアンロードすることで終了を一気に行いたいため&lt;/div&gt;" style="text;html=1;align=center;verticalAlign=middle;resizable=0;points=[];autosize=1;strokeColor=none;fillColor=none;" parent="1" vertex="1">
          <mxGeometry x="1290" y="2610" width="340" height="60" as="geometry" />
        </mxCell>
        <mxCell id="GcIDJ9KaJ4bPvR8jILLQ-155" value="" style="endArrow=none;dashed=1;html=1;dashPattern=1 3;strokeWidth=2;rounded=0;" parent="1" edge="1">
          <mxGeometry width="50" height="50" relative="1" as="geometry">
            <mxPoint x="285" y="2110" as="sourcePoint" />
            <mxPoint x="275" y="710" as="targetPoint" />
          </mxGeometry>
        </mxCell>
        <mxCell id="GcIDJ9KaJ4bPvR8jILLQ-161" value="Try againの場合は&lt;div&gt;各Controllerが既に初期化されているためStartGameでステージをロードしもう一度上から&lt;/div&gt;" style="rounded=1;whiteSpace=wrap;html=1;" parent="1" vertex="1">
          <mxGeometry x="330" y="2190" width="190" height="60" as="geometry" />
        </mxCell>
        <mxCell id="GcIDJ9KaJ4bPvR8jILLQ-167" style="edgeStyle=orthogonalEdgeStyle;rounded=0;orthogonalLoop=1;jettySize=auto;html=1;entryX=0.5;entryY=0;entryDx=0;entryDy=0;shape=link;" parent="1" source="GcIDJ9KaJ4bPvR8jILLQ-162" target="GcIDJ9KaJ4bPvR8jILLQ-166" edge="1">
          <mxGeometry relative="1" as="geometry" />
        </mxCell>
        <mxCell id="GcIDJ9KaJ4bPvR8jILLQ-172" style="edgeStyle=orthogonalEdgeStyle;rounded=0;orthogonalLoop=1;jettySize=auto;html=1;shape=link;" parent="1" source="GcIDJ9KaJ4bPvR8jILLQ-162" target="GcIDJ9KaJ4bPvR8jILLQ-171" edge="1">
          <mxGeometry relative="1" as="geometry" />
        </mxCell>
        <mxCell id="GcIDJ9KaJ4bPvR8jILLQ-174" style="edgeStyle=orthogonalEdgeStyle;rounded=0;orthogonalLoop=1;jettySize=auto;html=1;shape=link;" parent="1" source="GcIDJ9KaJ4bPvR8jILLQ-162" target="GcIDJ9KaJ4bPvR8jILLQ-173" edge="1">
          <mxGeometry relative="1" as="geometry" />
        </mxCell>
        <mxCell id="GcIDJ9KaJ4bPvR8jILLQ-162" value="&lt;h2&gt;StageObjectsController&lt;/h2&gt;&lt;div&gt;prehabの中に入っているステージ固有の情報も持ったController&lt;/div&gt;&lt;div&gt;主に処理は行わずInspectorにStageの情報を持つclass&lt;/div&gt;&lt;div&gt;StageDataに近い&lt;/div&gt;&lt;div&gt;またPositionに到達したときの&lt;/div&gt;" style="rounded=0;whiteSpace=wrap;html=1;" parent="1" vertex="1">
          <mxGeometry x="1430" y="860" width="310" height="150" as="geometry" />
        </mxCell>
        <mxCell id="GcIDJ9KaJ4bPvR8jILLQ-168" style="edgeStyle=orthogonalEdgeStyle;rounded=0;orthogonalLoop=1;jettySize=auto;html=1;entryX=1;entryY=0.5;entryDx=0;entryDy=0;" parent="1" source="GcIDJ9KaJ4bPvR8jILLQ-164" target="GcIDJ9KaJ4bPvR8jILLQ-166" edge="1">
          <mxGeometry relative="1" as="geometry" />
        </mxCell>
        <mxCell id="GcIDJ9KaJ4bPvR8jILLQ-164" value="&lt;h2&gt;EditorWays&lt;/h2&gt;&lt;div&gt;NPCの行動ルーチンをEmptyObjectでEditorから視覚的に操作できる&lt;/div&gt;&lt;div&gt;NPCが立ち止まる位置とかの追加情報も&lt;/div&gt;&lt;div&gt;扱えるように改造する&lt;/div&gt;" style="whiteSpace=wrap;html=1;" parent="1" vertex="1">
          <mxGeometry x="1650" y="1055" width="220" height="120" as="geometry" />
        </mxCell>
        <mxCell id="GcIDJ9KaJ4bPvR8jILLQ-166" value="NPCSpawnPositions" style="rounded=1;whiteSpace=wrap;html=1;" parent="1" vertex="1">
          <mxGeometry x="1480" y="1195" width="120" height="40" as="geometry" />
        </mxCell>
        <mxCell id="GcIDJ9KaJ4bPvR8jILLQ-170" value="EditorWaysのIndex=0がおよそSpawnPointになる" style="text;html=1;align=center;verticalAlign=middle;resizable=0;points=[];autosize=1;strokeColor=none;fillColor=none;" parent="1" vertex="1">
          <mxGeometry x="1410" y="1240" width="290" height="30" as="geometry" />
        </mxCell>
        <mxCell id="GcIDJ9KaJ4bPvR8jILLQ-171" value="PlayerStartPosition" style="rounded=1;whiteSpace=wrap;html=1;" parent="1" vertex="1">
          <mxGeometry x="1810" y="915" width="120" height="40" as="geometry" />
        </mxCell>
        <mxCell id="GcIDJ9KaJ4bPvR8jILLQ-179" style="edgeStyle=orthogonalEdgeStyle;rounded=0;orthogonalLoop=1;jettySize=auto;html=1;entryX=0;entryY=0.75;entryDx=0;entryDy=0;" parent="1" source="GcIDJ9KaJ4bPvR8jILLQ-173" target="GcIDJ9KaJ4bPvR8jILLQ-175" edge="1">
          <mxGeometry relative="1" as="geometry" />
        </mxCell>
        <mxCell id="GcIDJ9KaJ4bPvR8jILLQ-173" value="CheckPointList" style="rounded=1;whiteSpace=wrap;html=1;" parent="1" vertex="1">
          <mxGeometry x="1810" y="970" width="120" height="40" as="geometry" />
        </mxCell>
        <mxCell id="GcIDJ9KaJ4bPvR8jILLQ-178" value="" style="edgeStyle=orthogonalEdgeStyle;rounded=0;orthogonalLoop=1;jettySize=auto;html=1;" parent="1" source="GcIDJ9KaJ4bPvR8jILLQ-175" target="GcIDJ9KaJ4bPvR8jILLQ-176" edge="1">
          <mxGeometry relative="1" as="geometry" />
        </mxCell>
        <mxCell id="GcIDJ9KaJ4bPvR8jILLQ-175" value="&lt;h2&gt;CheckPoint&lt;/h2&gt;&lt;div&gt;Playerがそこに到達したときのアクションを設定&amp;nbsp;&lt;/div&gt;" style="rounded=0;whiteSpace=wrap;html=1;" parent="1" vertex="1">
          <mxGeometry x="1975" y="920" width="160" height="90" as="geometry" />
        </mxCell>
        <mxCell id="GcIDJ9KaJ4bPvR8jILLQ-176" value="とりあえずInspectorに直打ちだが、分岐などの実装をするためにEventGraphのIDを使用する形に変えたい" style="rounded=1;whiteSpace=wrap;html=1;" parent="1" vertex="1">
          <mxGeometry x="1970" y="1050" width="170" height="85" as="geometry" />
        </mxCell>
        <mxCell id="GcIDJ9KaJ4bPvR8jILLQ-185" value="&lt;h2&gt;EnemyAI&lt;/h2&gt;" style="text;html=1;align=center;verticalAlign=middle;whiteSpace=wrap;rounded=0;" parent="1" vertex="1">
          <mxGeometry x="1555" y="3060" width="60" height="30" as="geometry" />
        </mxCell>
        <mxCell id="GcIDJ9KaJ4bPvR8jILLQ-187" value="必要なプロパティ" style="swimlane;fontStyle=0;childLayout=stackLayout;horizontal=1;startSize=30;horizontalStack=0;resizeParent=1;resizeParentMax=0;resizeLast=0;collapsible=1;marginBottom=0;whiteSpace=wrap;html=1;" parent="1" vertex="1">
          <mxGeometry x="1440" y="3437.5" width="280" height="130" as="geometry" />
        </mxCell>
        <mxCell id="GcIDJ9KaJ4bPvR8jILLQ-188" value="enum AIState&amp;nbsp; [.Routine, .MoveToCheck, .BackToRoutine, .Wait]" style="text;strokeColor=none;fillColor=none;align=left;verticalAlign=middle;spacingLeft=4;spacingRight=4;overflow=hidden;points=[[0,0.5],[1,0.5]];portConstraint=eastwest;rotatable=0;whiteSpace=wrap;html=1;" parent="GcIDJ9KaJ4bPvR8jILLQ-187" vertex="1">
          <mxGeometry y="30" width="280" height="40" as="geometry" />
        </mxCell>
        <mxCell id="GcIDJ9KaJ4bPvR8jILLQ-189" value="RoutineWay ID" style="text;strokeColor=none;fillColor=none;align=left;verticalAlign=middle;spacingLeft=4;spacingRight=4;overflow=hidden;points=[[0,0.5],[1,0.5]];portConstraint=eastwest;rotatable=0;whiteSpace=wrap;html=1;" parent="GcIDJ9KaJ4bPvR8jILLQ-187" vertex="1">
          <mxGeometry y="70" width="280" height="30" as="geometry" />
        </mxCell>
        <mxCell id="GcIDJ9KaJ4bPvR8jILLQ-212" value="FindOutLevel" style="text;strokeColor=none;fillColor=none;align=left;verticalAlign=middle;spacingLeft=4;spacingRight=4;overflow=hidden;points=[[0,0.5],[1,0.5]];portConstraint=eastwest;rotatable=0;whiteSpace=wrap;html=1;" parent="GcIDJ9KaJ4bPvR8jILLQ-187" vertex="1">
          <mxGeometry y="100" width="280" height="30" as="geometry" />
        </mxCell>
        <mxCell id="GcIDJ9KaJ4bPvR8jILLQ-191" value="Ienumratorを使うためEnemyPrefabにつける" style="text;html=1;align=center;verticalAlign=middle;whiteSpace=wrap;rounded=0;" parent="1" vertex="1">
          <mxGeometry x="1515" y="3090" width="140" height="30" as="geometry" />
        </mxCell>
        <mxCell id="GcIDJ9KaJ4bPvR8jILLQ-192" value="UnitControllerの使える関数を洗い出す&lt;div&gt;Unitの発見を行うインジケータ&lt;/div&gt;&lt;div&gt;AmplifyShaderEditorを利用するのか&lt;/div&gt;&lt;div&gt;発見までの道筋ができていない&lt;/div&gt;&lt;div&gt;Unitの外見はどの用にするのか&lt;/div&gt;&lt;div&gt;GameManagerにGameStateなどのEnumを使って管理するつもりはないのか&lt;/div&gt;&lt;div&gt;もしベイクした場合Prefabを置く形に不都合はないのか&lt;/div&gt;&lt;div&gt;OverlayPanelを出し入れするタイミングを詳細に&lt;/div&gt;&lt;div&gt;GameManagerでUnitsLoaded後にCamera含めて操作可能になるがこれを管理するのにGameStateを使うべきでは&lt;/div&gt;&lt;div&gt;発見度合いの増加と距離、更に敵が見に来る閾値の指定はどうするのか&lt;/div&gt;&lt;div&gt;音に関する情報が一切ないがどうするつもりか&lt;/div&gt;" style="text;strokeColor=none;fillColor=none;align=left;verticalAlign=middle;spacingLeft=4;spacingRight=4;overflow=hidden;points=[[0,0.5],[1,0.5]];portConstraint=eastwest;rotatable=0;whiteSpace=wrap;html=1;" parent="1" vertex="1">
          <mxGeometry x="1240" y="1930" width="310" height="310" as="geometry" />
        </mxCell>
        <mxCell id="GcIDJ9KaJ4bPvR8jILLQ-195" value="UnitController" style="swimlane;fontStyle=0;childLayout=stackLayout;horizontal=1;startSize=30;horizontalStack=0;resizeParent=1;resizeParentMax=0;resizeLast=0;collapsible=1;marginBottom=0;whiteSpace=wrap;html=1;" parent="1" vertex="1">
          <mxGeometry x="135" y="3742" width="380" height="120" as="geometry" />
        </mxCell>
        <mxCell id="GcIDJ9KaJ4bPvR8jILLQ-196" value="public IEnumerator MoveTo(Vector3 location)" style="text;strokeColor=none;fillColor=none;align=left;verticalAlign=middle;spacingLeft=4;spacingRight=4;overflow=hidden;points=[[0,0.5],[1,0.5]];portConstraint=eastwest;rotatable=0;whiteSpace=wrap;html=1;" parent="GcIDJ9KaJ4bPvR8jILLQ-195" vertex="1">
          <mxGeometry y="30" width="380" height="30" as="geometry" />
        </mxCell>
        <mxCell id="GcIDJ9KaJ4bPvR8jILLQ-197" value="public IEnumerator RotateTo(Quaternion rotation)" style="text;strokeColor=none;fillColor=none;align=left;verticalAlign=middle;spacingLeft=4;spacingRight=4;overflow=hidden;points=[[0,0.5],[1,0.5]];portConstraint=eastwest;rotatable=0;whiteSpace=wrap;html=1;" parent="GcIDJ9KaJ4bPvR8jILLQ-195" vertex="1">
          <mxGeometry y="60" width="380" height="30" as="geometry" />
        </mxCell>
        <mxCell id="GcIDJ9KaJ4bPvR8jILLQ-198" value="public float GetRayDistanceTo(UnitController target, Vector3? location = null)" style="text;strokeColor=none;fillColor=none;align=left;verticalAlign=middle;spacingLeft=4;spacingRight=4;overflow=hidden;points=[[0,0.5],[1,0.5]];portConstraint=eastwest;rotatable=0;whiteSpace=wrap;html=1;" parent="GcIDJ9KaJ4bPvR8jILLQ-195" vertex="1">
          <mxGeometry y="90" width="380" height="30" as="geometry" />
        </mxCell>
        <mxCell id="GcIDJ9KaJ4bPvR8jILLQ-200" value="BodyTargetsのすべての箇所にrayを飛ばすようになっているところを 体の中心だけにする" style="text;html=1;align=center;verticalAlign=middle;whiteSpace=wrap;rounded=0;" parent="1" vertex="1">
          <mxGeometry x="545" y="3837" width="200" height="65" as="geometry" />
        </mxCell>
        <mxCell id="GcIDJ9KaJ4bPvR8jILLQ-199" style="edgeStyle=orthogonalEdgeStyle;rounded=0;orthogonalLoop=1;jettySize=auto;html=1;" parent="1" source="GcIDJ9KaJ4bPvR8jILLQ-198" target="GcIDJ9KaJ4bPvR8jILLQ-200" edge="1">
          <mxGeometry relative="1" as="geometry">
            <mxPoint x="575" y="3852" as="targetPoint" />
          </mxGeometry>
        </mxCell>
        <mxCell id="GcIDJ9KaJ4bPvR8jILLQ-201" value="主にAIでの自動移動を司ったりRayを呼び出す敵用のメソッドはある" style="text;html=1;align=center;verticalAlign=middle;resizable=0;points=[];autosize=1;strokeColor=none;fillColor=none;" parent="1" vertex="1">
          <mxGeometry x="120" y="3710" width="390" height="30" as="geometry" />
        </mxCell>
        <mxCell id="GcIDJ9KaJ4bPvR8jILLQ-202" value="発見インディケータはAmplifyShaderEditorで作成したものがある&lt;div&gt;メタギアのオマージュだがまあ使ってもいいでしょう&lt;/div&gt;&lt;div&gt;public class HeadUPでLookAtする形のインジケータ&lt;br&gt;&lt;/div&gt;&lt;div&gt;シェーダーでのビルボード化ではなく簡単に&lt;/div&gt;" style="text;html=1;align=center;verticalAlign=middle;resizable=0;points=[];autosize=1;strokeColor=none;fillColor=none;" parent="1" vertex="1">
          <mxGeometry x="1720" y="2020" width="370" height="70" as="geometry" />
        </mxCell>
        <mxCell id="GcIDJ9KaJ4bPvR8jILLQ-223" style="edgeStyle=orthogonalEdgeStyle;rounded=0;orthogonalLoop=1;jettySize=auto;html=1;" parent="1" source="GcIDJ9KaJ4bPvR8jILLQ-203" target="GcIDJ9KaJ4bPvR8jILLQ-225" edge="1">
          <mxGeometry relative="1" as="geometry">
            <mxPoint x="2080" y="2640" as="targetPoint" />
          </mxGeometry>
        </mxCell>
        <mxCell id="GcIDJ9KaJ4bPvR8jILLQ-224" value="NearUnits" style="edgeLabel;html=1;align=center;verticalAlign=middle;resizable=0;points=[];" parent="GcIDJ9KaJ4bPvR8jILLQ-223" vertex="1" connectable="0">
          <mxGeometry x="-0.004" y="-3" relative="1" as="geometry">
            <mxPoint y="2" as="offset" />
          </mxGeometry>
        </mxCell>
        <mxCell id="GcIDJ9KaJ4bPvR8jILLQ-203" value="&lt;h3&gt;AllUnitCon.RelationshipLoop()&lt;/h3&gt;&lt;div&gt;ここで近いと判断されている敵とUnitが選択される&lt;/div&gt;" style="rounded=1;whiteSpace=wrap;html=1;" parent="1" vertex="1">
          <mxGeometry x="342.5" y="3995" width="225" height="77" as="geometry" />
        </mxCell>
        <mxCell id="GcIDJ9KaJ4bPvR8jILLQ-205" value="&lt;h2&gt;発見されるまでにたどるメソッド&lt;/h2&gt;" style="text;html=1;align=center;verticalAlign=middle;resizable=0;points=[];autosize=1;strokeColor=none;fillColor=none;" parent="1" vertex="1">
          <mxGeometry x="500" y="4232" width="290" height="60" as="geometry" />
        </mxCell>
        <mxCell id="GcIDJ9KaJ4bPvR8jILLQ-229" style="edgeStyle=orthogonalEdgeStyle;rounded=0;orthogonalLoop=1;jettySize=auto;html=1;entryX=1;entryY=0.25;entryDx=0;entryDy=0;" parent="1" source="GcIDJ9KaJ4bPvR8jILLQ-206" target="GcIDJ9KaJ4bPvR8jILLQ-236" edge="1">
          <mxGeometry relative="1" as="geometry" />
        </mxCell>
        <mxCell id="GcIDJ9KaJ4bPvR8jILLQ-242" value="Distが既定値以上ならDistは0&lt;div&gt;つまり車線が通らないことにする&lt;/div&gt;" style="edgeLabel;html=1;align=center;verticalAlign=middle;resizable=0;points=[];" parent="GcIDJ9KaJ4bPvR8jILLQ-229" vertex="1" connectable="0">
          <mxGeometry x="0.0041" relative="1" as="geometry">
            <mxPoint as="offset" />
          </mxGeometry>
        </mxCell>
        <mxCell id="GcIDJ9KaJ4bPvR8jILLQ-206" value="UnitCon(Enem).GetRayDistanceTo&lt;div&gt;敵に近い場合&lt;/div&gt;" style="rounded=1;whiteSpace=wrap;html=1;" parent="1" vertex="1">
          <mxGeometry x="765" y="4472" width="250" height="60" as="geometry" />
        </mxCell>
        <mxCell id="GcIDJ9KaJ4bPvR8jILLQ-232" style="edgeStyle=orthogonalEdgeStyle;rounded=0;orthogonalLoop=1;jettySize=auto;html=1;" parent="1" source="GcIDJ9KaJ4bPvR8jILLQ-209" target="GcIDJ9KaJ4bPvR8jILLQ-236" edge="1">
          <mxGeometry relative="1" as="geometry">
            <mxPoint x="695" y="4662.04" as="targetPoint" />
          </mxGeometry>
        </mxCell>
        <mxCell id="GcIDJ9KaJ4bPvR8jILLQ-209" value="UnitCon(Enem).float GetDeltaLevelToFindOut(UnitController watcher, UnitController target, float distance)&lt;div&gt;距離により変わるデルタ値&lt;/div&gt;&lt;div&gt;通らない場合はマイナス値が返される&lt;/div&gt;" style="rounded=1;whiteSpace=wrap;html=1;" parent="1" vertex="1">
          <mxGeometry x="805" y="4569.5" width="342.5" height="80" as="geometry" />
        </mxCell>
        <mxCell id="GcIDJ9KaJ4bPvR8jILLQ-211" value="PMCのAIControllerのを参考に FindOutLevelを上げる&lt;div&gt;同様にdelta値をHeadUpIconに反映する関数は&lt;/div&gt;&lt;div&gt;AICOnのpublic void FindOutRoutine()を参考に&lt;br&gt;&lt;/div&gt;" style="text;html=1;align=center;verticalAlign=middle;resizable=0;points=[];autosize=1;strokeColor=none;fillColor=none;" parent="1" vertex="1">
          <mxGeometry x="855" y="4712" width="310" height="60" as="geometry" />
        </mxCell>
        <mxCell id="GcIDJ9KaJ4bPvR8jILLQ-237" style="edgeStyle=orthogonalEdgeStyle;rounded=0;orthogonalLoop=1;jettySize=auto;html=1;" parent="1" source="GcIDJ9KaJ4bPvR8jILLQ-213" target="GcIDJ9KaJ4bPvR8jILLQ-236" edge="1">
          <mxGeometry relative="1" as="geometry" />
        </mxCell>
        <mxCell id="GcIDJ9KaJ4bPvR8jILLQ-213" value="UnitCon(Enem).TryToFindPlayer()&lt;div&gt;FixedUpdate()内の敵発見メソッド&lt;/div&gt;" style="rounded=1;whiteSpace=wrap;html=1;" parent="1" vertex="1">
          <mxGeometry x="405" y="4432" width="250" height="60" as="geometry" />
        </mxCell>
        <mxCell id="GcIDJ9KaJ4bPvR8jILLQ-225" value="UnitsCon.NearUnitsプロパティが&lt;div&gt;RelationshipLoopで更新され続ける&lt;/div&gt;&lt;div&gt;これはとりあえず近いUnitsを取得しているだけで発見には関係ない&lt;/div&gt;" style="rounded=1;whiteSpace=wrap;html=1;" parent="1" vertex="1">
          <mxGeometry x="332.5" y="4152" width="262.5" height="80" as="geometry" />
        </mxCell>
        <mxCell id="GcIDJ9KaJ4bPvR8jILLQ-227" style="edgeStyle=orthogonalEdgeStyle;rounded=0;orthogonalLoop=1;jettySize=auto;html=1;" parent="1" source="GcIDJ9KaJ4bPvR8jILLQ-226" target="GcIDJ9KaJ4bPvR8jILLQ-213" edge="1">
          <mxGeometry relative="1" as="geometry" />
        </mxCell>
        <mxCell id="GcIDJ9KaJ4bPvR8jILLQ-226" value="UnitCon.FixedUpdate()" style="rounded=1;whiteSpace=wrap;html=1;" parent="1" vertex="1">
          <mxGeometry x="535" y="4312" width="140" height="40" as="geometry" />
        </mxCell>
        <mxCell id="GcIDJ9KaJ4bPvR8jILLQ-246" value="" style="edgeStyle=orthogonalEdgeStyle;rounded=0;orthogonalLoop=1;jettySize=auto;html=1;" parent="1" source="GcIDJ9KaJ4bPvR8jILLQ-236" target="GcIDJ9KaJ4bPvR8jILLQ-245" edge="1">
          <mxGeometry relative="1" as="geometry" />
        </mxCell>
        <mxCell id="GcIDJ9KaJ4bPvR8jILLQ-236" value="デルタ値をFindOutLevelに加算&lt;div&gt;ずっと遠いもしくは射線が通らない状態が続いていればマイナスが足され続ける&lt;/div&gt;" style="rounded=1;whiteSpace=wrap;html=1;" parent="1" vertex="1">
          <mxGeometry x="415" y="4572" width="190" height="100" as="geometry" />
        </mxCell>
        <mxCell id="GcIDJ9KaJ4bPvR8jILLQ-238" value="Playerが複数キャラを操作するかもということを考えすぎて&lt;div&gt;アルゴリズムがややこしくなっているのでPlayer 2 Enemiesの簡単な形に治す&lt;/div&gt;" style="text;html=1;align=center;verticalAlign=middle;resizable=0;points=[];autosize=1;strokeColor=none;fillColor=none;" parent="1" vertex="1">
          <mxGeometry x="615" y="4012" width="440" height="40" as="geometry" />
        </mxCell>
        <mxCell id="GcIDJ9KaJ4bPvR8jILLQ-239" value="すべてのEnemyUnitControllerは&lt;div&gt;PlayerのUnitControllerを最初から持っている&lt;/div&gt;" style="text;html=1;align=center;verticalAlign=middle;resizable=0;points=[];autosize=1;strokeColor=none;fillColor=none;" parent="1" vertex="1">
          <mxGeometry x="30" y="4052" width="260" height="40" as="geometry" />
        </mxCell>
        <mxCell id="GcIDJ9KaJ4bPvR8jILLQ-241" value="UnitCon(Enemy). PlayerUnitController&lt;div&gt;プロパティを使って検証していく&lt;/div&gt;" style="text;html=1;align=center;verticalAlign=middle;resizable=0;points=[];autosize=1;strokeColor=none;fillColor=none;" parent="1" vertex="1">
          <mxGeometry x="655" y="4385" width="230" height="40" as="geometry" />
        </mxCell>
        <mxCell id="GcIDJ9KaJ4bPvR8jILLQ-249" value="" style="edgeStyle=orthogonalEdgeStyle;rounded=0;orthogonalLoop=1;jettySize=auto;html=1;" parent="1" source="GcIDJ9KaJ4bPvR8jILLQ-245" target="GcIDJ9KaJ4bPvR8jILLQ-248" edge="1">
          <mxGeometry relative="1" as="geometry" />
        </mxCell>
        <mxCell id="GcIDJ9KaJ4bPvR8jILLQ-250" value="enum FindYou" style="edgeLabel;html=1;align=center;verticalAlign=middle;resizable=0;points=[];" parent="GcIDJ9KaJ4bPvR8jILLQ-249" vertex="1" connectable="0">
          <mxGeometry x="-0.2" y="1" relative="1" as="geometry">
            <mxPoint as="offset" />
          </mxGeometry>
        </mxCell>
        <mxCell id="GcIDJ9KaJ4bPvR8jILLQ-245" value="FindOutLevelが規定値を&lt;div&gt;上回っている ！&lt;/div&gt;" style="rhombus;whiteSpace=wrap;html=1;" parent="1" vertex="1">
          <mxGeometry x="410" y="4729.5" width="200" height="80" as="geometry" />
        </mxCell>
        <mxCell id="GcIDJ9KaJ4bPvR8jILLQ-248" value="CharacterActionHander" style="rounded=1;whiteSpace=wrap;html=1;" parent="1" vertex="1">
          <mxGeometry x="430" y="4859.5" width="160" height="60" as="geometry" />
        </mxCell>
        <mxCell id="GcIDJ9KaJ4bPvR8jILLQ-253" value="GameState.Pause" style="text;html=1;align=center;verticalAlign=middle;resizable=0;points=[];autosize=1;strokeColor=none;fillColor=none;" parent="1" vertex="1">
          <mxGeometry y="838" width="120" height="30" as="geometry" />
        </mxCell>
        <mxCell id="GcIDJ9KaJ4bPvR8jILLQ-254" value="GameState.Playing" style="text;html=1;align=center;verticalAlign=middle;resizable=0;points=[];autosize=1;strokeColor=none;fillColor=none;" parent="1" vertex="1">
          <mxGeometry y="1460" width="130" height="30" as="geometry" />
        </mxCell>
        <mxCell id="GcIDJ9KaJ4bPvR8jILLQ-255" value="GameState.Pause" style="text;html=1;align=center;verticalAlign=middle;resizable=0;points=[];autosize=1;strokeColor=none;fillColor=none;" parent="1" vertex="1">
          <mxGeometry y="1770" width="120" height="30" as="geometry" />
        </mxCell>
        <mxCell id="GcIDJ9KaJ4bPvR8jILLQ-258" value="OverLaupanel.Show" style="text;html=1;align=center;verticalAlign=middle;resizable=0;points=[];autosize=1;strokeColor=none;fillColor=none;" parent="1" vertex="1">
          <mxGeometry y="930" width="130" height="30" as="geometry" />
        </mxCell>
        <mxCell id="GcIDJ9KaJ4bPvR8jILLQ-263" value="" style="endArrow=none;dashed=1;html=1;dashPattern=1 3;strokeWidth=2;rounded=0;" parent="1" target="GcIDJ9KaJ4bPvR8jILLQ-261" edge="1">
          <mxGeometry width="50" height="50" relative="1" as="geometry">
            <mxPoint x="905" y="2100" as="sourcePoint" />
            <mxPoint x="895" y="700" as="targetPoint" />
          </mxGeometry>
        </mxCell>
        <mxCell id="GcIDJ9KaJ4bPvR8jILLQ-261" value="Cameraの操作停止&lt;div&gt;Cinemachineの中身に任せる&lt;/div&gt;" style="whiteSpace=wrap;html=1;rounded=1;" parent="1" vertex="1">
          <mxGeometry x="850" y="1770" width="120" height="60" as="geometry" />
        </mxCell>
        <mxCell id="GcIDJ9KaJ4bPvR8jILLQ-264" value="AudioClipで音は簡単に鳴らせる" style="text;html=1;align=center;verticalAlign=middle;resizable=0;points=[];autosize=1;strokeColor=none;fillColor=none;" parent="1" vertex="1">
          <mxGeometry x="1225" y="2368" width="190" height="30" as="geometry" />
        </mxCell>
        <mxCell id="k0O00Z1mqWm5XEklMIIy-1" value="制作順としてはGameManagerから箱物作って埋めるという形で" style="text;html=1;align=center;verticalAlign=middle;resizable=0;points=[];autosize=1;strokeColor=none;fillColor=none;" parent="1" vertex="1">
          <mxGeometry x="715" y="468" width="370" height="30" as="geometry" />
        </mxCell>
        <mxCell id="k0O00Z1mqWm5XEklMIIy-4" value="&lt;h2&gt;MainUICon&lt;/h2&gt;" style="whiteSpace=wrap;html=1;" parent="1" vertex="1">
          <mxGeometry x="1430" y="440" width="120" height="60" as="geometry" />
        </mxCell>
        <mxCell id="k0O00Z1mqWm5XEklMIIy-9" value="MainUICon以下のこれらのパネルは名前とボタンがちょっと違えど、やることはほぼ同じ&lt;div&gt;数個のボタンに背景の画像を動かしたり動かさなかったりする&lt;/div&gt;" style="text;html=1;align=center;verticalAlign=middle;resizable=0;points=[];autosize=1;strokeColor=none;fillColor=none;" parent="1" vertex="1">
          <mxGeometry x="1255" y="385" width="500" height="40" as="geometry" />
        </mxCell>
        <mxCell id="k0O00Z1mqWm5XEklMIIy-11" value="Winの場合は煙突に無事侵入できたサンタクロースの影で&lt;div&gt;Loseの場合は子どもにプレゼントを荒らされ包み紙のカスと&lt;/div&gt;&lt;div&gt;帽子が木に引っかかっている絵で終わり&lt;/div&gt;&lt;div&gt;両社とも雪が動く形にしたい&lt;/div&gt;" style="text;html=1;align=center;verticalAlign=middle;resizable=0;points=[];autosize=1;strokeColor=none;fillColor=none;" parent="1" vertex="1">
          <mxGeometry x="1665" y="448" width="350" height="70" as="geometry" />
        </mxCell>
        <mxCell id="k0O00Z1mqWm5XEklMIIy-12" value="&lt;h3&gt;StartPanel&lt;/h3&gt;" style="swimlane;fontStyle=0;childLayout=stackLayout;horizontal=1;startSize=30;horizontalStack=0;resizeParent=1;resizeParentMax=0;resizeLast=0;collapsible=1;marginBottom=0;whiteSpace=wrap;html=1;" parent="1" vertex="1">
          <mxGeometry x="1290" y="530" width="140" height="150" as="geometry" />
        </mxCell>
        <mxCell id="k0O00Z1mqWm5XEklMIIy-13" value="TutrialButton" style="text;strokeColor=none;fillColor=none;align=left;verticalAlign=middle;spacingLeft=4;spacingRight=4;overflow=hidden;points=[[0,0.5],[1,0.5]];portConstraint=eastwest;rotatable=0;whiteSpace=wrap;html=1;" parent="k0O00Z1mqWm5XEklMIIy-12" vertex="1">
          <mxGeometry y="30" width="140" height="30" as="geometry" />
        </mxCell>
        <mxCell id="k0O00Z1mqWm5XEklMIIy-14" value="Stage01Button" style="text;strokeColor=none;fillColor=none;align=left;verticalAlign=middle;spacingLeft=4;spacingRight=4;overflow=hidden;points=[[0,0.5],[1,0.5]];portConstraint=eastwest;rotatable=0;whiteSpace=wrap;html=1;" parent="k0O00Z1mqWm5XEklMIIy-12" vertex="1">
          <mxGeometry y="60" width="140" height="30" as="geometry" />
        </mxCell>
        <mxCell id="k0O00Z1mqWm5XEklMIIy-15" value="ExitButton" style="text;strokeColor=none;fillColor=none;align=left;verticalAlign=middle;spacingLeft=4;spacingRight=4;overflow=hidden;points=[[0,0.5],[1,0.5]];portConstraint=eastwest;rotatable=0;whiteSpace=wrap;html=1;" parent="k0O00Z1mqWm5XEklMIIy-12" vertex="1">
          <mxGeometry y="90" width="140" height="30" as="geometry" />
        </mxCell>
        <mxCell id="k0O00Z1mqWm5XEklMIIy-20" value="Images" style="text;strokeColor=none;fillColor=none;align=left;verticalAlign=middle;spacingLeft=4;spacingRight=4;overflow=hidden;points=[[0,0.5],[1,0.5]];portConstraint=eastwest;rotatable=0;whiteSpace=wrap;html=1;" parent="k0O00Z1mqWm5XEklMIIy-12" vertex="1">
          <mxGeometry y="120" width="140" height="30" as="geometry" />
        </mxCell>
        <mxCell id="k0O00Z1mqWm5XEklMIIy-16" value="&lt;h3&gt;LoadingPanel&lt;/h3&gt;" style="swimlane;fontStyle=0;childLayout=stackLayout;horizontal=1;startSize=30;horizontalStack=0;resizeParent=1;resizeParentMax=0;resizeLast=0;collapsible=1;marginBottom=0;whiteSpace=wrap;html=1;" parent="1" vertex="1">
          <mxGeometry x="1430" y="530" width="140" height="60" as="geometry" />
        </mxCell>
        <mxCell id="k0O00Z1mqWm5XEklMIIy-17" value="Images" style="text;strokeColor=none;fillColor=none;align=left;verticalAlign=middle;spacingLeft=4;spacingRight=4;overflow=hidden;points=[[0,0.5],[1,0.5]];portConstraint=eastwest;rotatable=0;whiteSpace=wrap;html=1;" parent="k0O00Z1mqWm5XEklMIIy-16" vertex="1">
          <mxGeometry y="30" width="140" height="30" as="geometry" />
        </mxCell>
        <mxCell id="k0O00Z1mqWm5XEklMIIy-21" value="&lt;h3&gt;ResultPanel&lt;/h3&gt;" style="swimlane;fontStyle=0;childLayout=stackLayout;horizontal=1;startSize=30;horizontalStack=0;resizeParent=1;resizeParentMax=0;resizeLast=0;collapsible=1;marginBottom=0;whiteSpace=wrap;html=1;" parent="1" vertex="1">
          <mxGeometry x="1570" y="530" width="140" height="150" as="geometry" />
        </mxCell>
        <mxCell id="k0O00Z1mqWm5XEklMIIy-22" value="ScoreLabel" style="text;strokeColor=none;fillColor=none;align=left;verticalAlign=middle;spacingLeft=4;spacingRight=4;overflow=hidden;points=[[0,0.5],[1,0.5]];portConstraint=eastwest;rotatable=0;whiteSpace=wrap;html=1;" parent="k0O00Z1mqWm5XEklMIIy-21" vertex="1">
          <mxGeometry y="30" width="140" height="30" as="geometry" />
        </mxCell>
        <mxCell id="k0O00Z1mqWm5XEklMIIy-23" value="RestartButton" style="text;strokeColor=none;fillColor=none;align=left;verticalAlign=middle;spacingLeft=4;spacingRight=4;overflow=hidden;points=[[0,0.5],[1,0.5]];portConstraint=eastwest;rotatable=0;whiteSpace=wrap;html=1;" parent="k0O00Z1mqWm5XEklMIIy-21" vertex="1">
          <mxGeometry y="60" width="140" height="30" as="geometry" />
        </mxCell>
        <mxCell id="k0O00Z1mqWm5XEklMIIy-24" value="ExitButton" style="text;strokeColor=none;fillColor=none;align=left;verticalAlign=middle;spacingLeft=4;spacingRight=4;overflow=hidden;points=[[0,0.5],[1,0.5]];portConstraint=eastwest;rotatable=0;whiteSpace=wrap;html=1;" parent="k0O00Z1mqWm5XEklMIIy-21" vertex="1">
          <mxGeometry y="90" width="140" height="30" as="geometry" />
        </mxCell>
        <mxCell id="k0O00Z1mqWm5XEklMIIy-25" value="Images" style="text;strokeColor=none;fillColor=none;align=left;verticalAlign=middle;spacingLeft=4;spacingRight=4;overflow=hidden;points=[[0,0.5],[1,0.5]];portConstraint=eastwest;rotatable=0;whiteSpace=wrap;html=1;" parent="k0O00Z1mqWm5XEklMIIy-21" vertex="1">
          <mxGeometry y="120" width="140" height="30" as="geometry" />
        </mxCell>
        <mxCell id="jXujLD4FF0cwBqFkgT6Y-1" value="ShowLoadingPanel()" style="rounded=1;whiteSpace=wrap;html=1;" vertex="1" parent="1">
          <mxGeometry x="340" y="970" width="140" height="60" as="geometry" />
        </mxCell>
      </root>
    </mxGraphModel>
  </diagram>
</mxfile>
